<mxfile host="app.diagrams.net" modified="2023-12-22T02:18:39.880Z" agent="Mozilla/5.0 (Windows NT 10.0; Win64; x64) AppleWebKit/537.36 (KHTML, like Gecko) Chrome/120.0.0.0 Safari/537.36" version="22.1.11" etag="XIdC7G8r4HLQiLZxVLgR" type="github">
  <diagram name="第 1 页" id="ZA9Fudyz3t-SFvbErEFT">
    <mxGraphModel>
      <root>
        <mxCell id="0" />
        <mxCell id="1" parent="0" />
      </root>
    </mxGraphModel>
  </diagram>
</mxfile>
